<?xml version="1.0" encoding="UTF-8" standalone="no"?>
<!-- Created with Inkscape (http://www.inkscape.org/) -->

<svg
   xmlns:dc="http://purl.org/dc/elements/1.1/"
   xmlns:cc="http://creativecommons.org/ns#"
   xmlns:rdf="http://www.w3.org/1999/02/22-rdf-syntax-ns#"
   xmlns:svg="http://www.w3.org/2000/svg"
   xmlns="http://www.w3.org/2000/svg"
   xmlns:sodipodi="http://sodipodi.sourceforge.net/DTD/sodipodi-0.dtd"
   xmlns:inkscape="http://www.inkscape.org/namespaces/inkscape"
   id="svg3082"
   version="1.1"
   inkscape:version="0.48.4 r9939"
   width="283.98254"
   height="284.16476"
   sodipodi:docname="abc.svg">
  <metadata
     id="metadata3088">
    <rdf:RDF>
      <cc:Work
         rdf:about="">
        <dc:format>image/svg+xml</dc:format>
        <dc:type
           rdf:resource="http://purl.org/dc/dcmitype/StillImage" />
        <dc:title></dc:title>
      </cc:Work>
    </rdf:RDF>
  </metadata>
  <defs
     id="defs3086" />
  <sodipodi:namedview
     pagecolor="#ffffff"
     bordercolor="#666666"
     borderopacity="1"
     objecttolerance="10"
     gridtolerance="10"
     guidetolerance="10"
     inkscape:pageopacity="0"
     inkscape:pageshadow="2"
     inkscape:window-width="1280"
     inkscape:window-height="964"
     id="namedview3084"
     showgrid="false"
     inkscape:zoom="1.2965432"
     inkscape:cx="60.847623"
     inkscape:cy="141.09966"
     inkscape:window-x="-4"
     inkscape:window-y="-4"
     inkscape:window-maximized="1"
     inkscape:current-layer="layer1"
     fit-margin-top="0"
     fit-margin-left="0"
     fit-margin-right="0"
     fit-margin-bottom="0" />
  <g
     inkscape:groupmode="layer"
     id="layer1"
     inkscape:label="good stuff"
     style="display:inline"
     transform="translate(-157.78869,-156.93489)">
    <path
       style="fill:none;stroke:#000000;stroke-width:0.25;stroke-miterlimit:4;stroke-opacity:1;stroke-dasharray:none"
       d="m 302.85963,440.27434 c 0.78098,-0.40387 2.51356,-1.96672 3.85017,-3.473 l 2.43019,-2.7387 8.34305,-1.04808 8.34305,-1.04809 2.30171,1.75693 c 6.10724,4.66177 11.34076,3.23316 14.22952,-3.88427 l 1.12048,-2.76069 4.33109,-1.74147 c 2.38211,-0.95781 5.85146,-2.42732 7.70968,-3.2656 l 3.37858,-1.52412 2.37142,1.02889 c 1.30428,0.56589 3.60892,1.13392 5.12142,1.26229 4.7655,0.40446 6.91884,-1.747 8.25517,-8.24791 0.75612,-3.67836 0.18794,-3.03893 8.65961,-9.74551 l 4.66478,-3.69286 4.58522,0.21193 c 3.96863,0.18343 4.80047,0.0759 6.18594,-0.79964 2.67147,-1.68823 3.37537,-3.62771 3.27735,-9.03016 -0.0854,-4.70958 -0.0802,-4.73102 1.66217,-6.8574 0.96133,-1.17318 3.06708,-3.91227 4.67945,-6.08687 l 2.93157,-3.95381 2.92437,-0.35633 c 4.04437,-0.4928 6.9408,-1.86385 8.15916,-3.86222 1.4068,-2.30743 1.32265,-6.3532 -0.20582,-9.89648 -1.33573,-3.09644 -1.59984,-1.83213 2.45714,-11.76253 l 2.04271,-5 3.96669,-2 c 4.69762,-2.36853 6.25449,-4.25784 6.25449,-7.59 0,-2.71116 -0.81729,-4.70893 -3.19753,-7.81599 l -1.84317,-2.40598 0.93429,-7.48666 c 0.85344,-6.83881 1.03908,-7.55776 2.14535,-8.3083 2.7627,-1.87435 5.86466,-5.4531 6.39445,-7.37731 1.02801,-3.73373 -0.26665,-6.13548 -5.80329,-10.76576 -2.05711,-1.72036 -2.10182,-1.82622 -2.63939,-6.25 -1.24792,-10.26946 -1.26832,-9.78583 0.50603,-12 2.54344,-3.17393 3.50326,-5.45 3.50326,-8.3075 0,-2.36649 -0.17246,-2.76139 -1.94032,-4.44312 -1.06717,-1.01518 -3.37342,-2.41541 -5.125,-3.11164 -3.57346,-1.4204 -3.43938,-1.23901 -6.72966,-9.10385 -2.40692,-5.75331 -2.41005,-5.79597 -0.75302,-10.28389 1.45886,-3.9512 1.38281,-7.52538 -0.20014,-9.4066 -1.58226,-1.88042 -4.52873,-3.0635 -8.56932,-3.44082 l -3.1684,-0.29587 -3.63207,-4.75268 c -1.99764,-2.61397 -4.0418,-5.27791 -4.54258,-5.91985 -0.81939,-1.05037 -0.85477,-1.53485 -0.35355,-4.84143 1.1707,-7.72316 -1.34274,-11.35753 -7.83611,-11.33082 -1.59491,0.007 -3.71119,0.20056 -4.70286,0.43111 -2.16528,0.5034 -2.21057,0.47995 -8.82461,-4.56934 -4.54714,-3.47138 -5.10614,-4.07202 -5.35133,-5.75 -1.09454,-7.49049 -1.70558,-8.96566 -4.4232,-10.67852 -2.07592,-1.3084 -5.76353,-1.0149 -9.65974,0.76885 -1.54491,0.70728 -3.07402,1.28597 -3.39801,1.28597 -0.32399,0 -3.46016,-1.18568 -6.96927,-2.63483 l -6.3802,-2.63484 -1.14208,-2.81003 c -1.70088,-4.18493 -2.91599,-6.04115 -4.77451,-7.2936 -2.97944,-2.00785 -6.38769,-1.16825 -11.39225,2.80642 l -2.61822,2.07942 -6.13178,-0.79833 c -3.37247,-0.43909 -6.62701,-0.89343 -7.23229,-1.00966 -0.65398,-0.12557 -1.85971,-1.35509 -2.97158,-3.0302 -3.17873,-4.78894 -7.60989,-6.76944 -11.10367,-4.96274 -1.38165,0.71448 -4.44839,3.86459 -6.33578,6.50803 -0.9509,1.33181 -1.37059,1.4603 -7,2.14317 -8.45927,1.02613 -8.33088,1.03812 -10.83134,-1.01082 -7.41835,-6.07879 -12.29704,-4.84068 -15.89152,4.03294 l -1.32796,3.27832 -5.96881,2.44637 c -3.28285,1.3455 -6.36889,2.57416 -6.85785,2.73036 -0.48897,0.15619 -2.24325,-0.32375 -3.89841,-1.06654 -8.31877,-3.73324 -12.61718,-1.29664 -14.05763,7.96872 l -0.58487,3.762 -5.52231,4.12292 -5.52231,4.12292 -5.59591,0 c -6.18988,0 -7.64488,0.56206 -9.17678,3.54496 -0.78896,1.53628 -1.0115,6.79982 -0.40245,9.51906 0.31957,1.42682 -0.0564,2.08476 -4.28567,7.5 l -4.63597,5.93598 -3.21433,0.39219 c -3.77515,0.46061 -7.2649,2.06033 -8.64668,3.96366 -1.45991,2.01096 -1.31245,6.3197 0.3501,10.23006 l 1.31202,3.0859 -2.4232,5.6641 c -1.33276,3.11525 -2.57246,6.14386 -2.7549,6.73024 -0.21663,0.69626 -1.4107,1.53352 -3.44169,2.41324 -4.34164,1.88057 -6.13118,3.38805 -7.13157,6.00755 -1.13492,2.97174 -0.45039,5.51326 2.57176,9.54838 1.65078,2.20411 2.15785,3.28536 1.97653,4.21468 -0.4894,2.5083 -1.21024,7.32251 -1.53475,10.25 -0.32478,2.92998 -0.41292,3.07364 -3.77633,6.15553 -6.47078,5.92917 -5.95787,9.91665 2.10459,16.36149 1.10314,0.88181 1.31708,1.54655 1.60925,5 0.18533,2.19064 0.58357,5.57971 0.88497,7.53126 l 0.54801,3.54829 -2.00816,2.95171 c -2.53379,3.72431 -3.37248,6.62405 -2.5962,8.97622 0.67512,2.04562 3.93881,4.97192 6.43966,5.77394 1.93187,0.61955 3.55226,1.80215 3.55226,2.59253 0,0.2673 1.26221,3.51589 2.80493,7.21909 2.79895,6.71875 2.80323,6.737 2.00697,8.56152 -1.39353,3.19306 -1.88499,6.45014 -1.30069,8.62007 0.70664,2.62426 3.18227,4.23344 7.87929,5.12158 1.99364,0.37697 3.69188,0.77571 3.77387,0.88609 6.76939,9.11279 8.95093,11.96292 9.34128,12.20417 0.2796,0.1728 0.37349,2.11214 0.22497,4.64655 -0.44492,7.59237 1.66926,9.74596 9.32378,9.49754 l 4.30439,-0.13969 2.69561,2.28787 c 1.48258,1.25833 4.34403,3.48086 6.35879,4.93895 3.67559,2.66005 4.58262,3.92879 4.59169,6.42284 0.002,0.73834 0.55895,2.53257 1.23614,3.98717 1.95149,4.1918 4.83422,4.99032 10.8947,3.01782 l 3.38572,-1.10195 2.61428,1.13813 c 1.43785,0.62598 4.93984,2.06612 7.78219,3.20033 l 5.16791,2.06219 1.37066,3.01938 c 3.1886,7.02407 7.58925,8.03033 14.23788,3.25564 l 2.15738,-1.54931 5.19913,0.74484 c 2.85952,0.40967 6.60266,0.89563 8.31808,1.07992 2.98448,0.32062 3.21009,0.44391 5.2324,2.85934 1.16239,1.38834 2.79636,2.94073 3.63104,3.44974 1.82606,1.11357 4.79467,1.19945 6.73725,0.19491 z"
       id="path3264"
       inkscape:connector-curvature="0" />
    <path
       style="fill:none;stroke:#000000;stroke-width:0.25;stroke-miterlimit:4;stroke-opacity:1;stroke-dasharray:none"
       d="m 290.38999,417.20736 c -8.53126,-1.02295 -11.08288,-1.43936 -16.85398,-2.75044 -36.576,-8.30935 -66.68269,-33.08154 -81.88983,-67.38006 -5.66268,-12.77173 -8.70966,-25.23926 -9.83314,-40.23489 -2.04297,-27.26853 6.50683,-55.84851 23.47422,-78.4688 17.65786,-23.5408 42.80897,-39.21931 72.35273,-45.1027 29.61673,-5.89792 61.52853,0.55854 87.28583,17.65984 12.06978,8.01362 20.53615,15.97356 29.067,27.32833 12.0508,16.03989 19.23965,33.15004 22.72445,54.08631 1.28504,7.72039 1.28762,26.21375 0.005,33.91369 -3.70399,22.23142 -12.04869,41.07707 -25.68193,58 -15.13976,18.79298 -38.17809,33.42341 -62.23329,39.52109 -9.78992,2.48162 -16.08402,3.30165 -26.6668,3.47431 -5.5,0.0897 -10.7875,0.0687 -11.75,-0.0467 z"
       id="path3262"
       inkscape:connector-curvature="0" />
    <path
       style="fill:none;stroke:#000000;stroke-width:0.25;stroke-miterlimit:4;stroke-opacity:1;stroke-dasharray:none"
       d="m 219.52286,256.60653 c 1.97061,-1.97061 2.42379,-5.29966 0.96642,-7.09943 -0.98495,-1.21637 -1.02338,-1.22215 -2.03551,-0.30619 -0.78301,0.70862 -0.91499,1.15148 -0.54769,1.83779 0.75393,1.40873 0.57444,2.73302 -0.50252,3.70766 -1.301,1.17738 -3.74936,0.7025 -5.62048,-1.09015 -2.17159,-2.08051 -1.80153,-4.25458 0.91755,-5.39069 2.37773,-0.99347 2.38207,-2.75688 0.007,-2.75688 -4.52721,0 -6.83725,6.33176 -3.62681,9.94096 2.90902,3.27033 7.78827,3.81092 10.44226,1.15693 z"
       id="path3134"
       inkscape:connector-curvature="0" />
    <path
       style="fill:none;stroke:#000000;stroke-width:0.25;stroke-miterlimit:4;stroke-opacity:1;stroke-dasharray:none"
       d="m 385.88385,256.49548 c 4.37978,-2.32431 5.14824,-2.42004 5.91516,-0.73684 0.31325,0.6875 0.91892,1.25 1.34595,1.25 1.58567,0 1.38063,-1.67377 -0.71603,-5.84499 -1.77813,-3.53753 -2.29251,-4.18931 -3.20359,-4.05935 -1.09587,0.15632 -1.15061,0.45534 -0.54878,2.99805 0.30224,1.27695 0.0919,1.45731 -4.23427,3.63002 -4.56606,2.29321 -4.81026,2.52227 -4.24881,3.98537 0.45928,1.19685 1.58939,0.95411 5.69037,-1.22226 z"
       id="path3132"
       inkscape:connector-curvature="0" />
    <path
       style="fill:none;stroke:#000000;stroke-width:0.25;stroke-miterlimit:4;stroke-opacity:1;stroke-dasharray:none"
       d="m 378.46566,247.50864 c 0.27163,0 0.42198,-0.49792 0.3341,-1.10649 -0.11465,-0.79397 -0.61786,-1.19961 -1.78169,-1.43622 -3.64666,-0.74136 -4.25167,-3.36718 -1.36068,-5.9055 3.205,-2.81403 6.46698,-1.97637 6.33156,1.62591 -0.0804,2.13758 1.01254,3.26717 2.20419,2.27818 1.25533,-1.04183 0.64755,-4.68074 -1.0836,-6.48766 -2.61959,-2.73427 -6.77228,-2.38216 -10.00255,0.84811 -1.49181,1.49181 -1.717,2.04042 -1.717,4.18294 0,2.03558 0.26597,2.76885 1.52402,4.2017 1.46765,1.67155 2.98981,2.35739 4.39187,1.97882 0.36624,-0.0989 0.88814,-0.17979 1.15978,-0.17979 z"
       id="path3130"
       inkscape:connector-curvature="0" />
    <path
       style="fill:none;stroke:#000000;stroke-width:0.25;stroke-miterlimit:4;stroke-opacity:1;stroke-dasharray:none"
       d="m 226.10062,245.85561 c 0.38489,-0.61019 0.3602,-1.11873 -0.0893,-1.83846 -0.91706,-1.46845 -0.77576,-2.08884 0.87746,-3.85265 1.258,-1.34216 1.75525,-1.55176 3.14588,-1.3261 1.695,0.27507 3.26175,-0.76762 2.64731,-1.76181 -0.34461,-0.55758 -11.25703,-4.06795 -12.64574,-4.06795 -1.10093,0 -2.14626,0.90938 -2.14626,1.86712 0,1.13819 6.57902,12.18987 7.14439,12.00141 0.29379,-0.0979 0.7736,-0.55763 1.06624,-1.02156 z"
       id="path3128"
       inkscape:connector-curvature="0" />
    <path
       style="fill:none;stroke:#000000;stroke-width:0.25;stroke-miterlimit:4;stroke-opacity:1;stroke-dasharray:none"
       d="m 222.81594,238.2958 c -0.70502,-1.54736 -0.50133,-1.84401 0.99712,-1.45215 0.78457,0.20517 1.08322,0.60697 0.97816,1.316 -0.22624,1.52688 -1.30765,1.60142 -1.97528,0.13615 z"
       id="path3126"
       inkscape:connector-curvature="0" />
    <path
       style="fill:none;stroke:#000000;stroke-width:0.25;stroke-miterlimit:4;stroke-opacity:1;stroke-dasharray:none"
       d="m 370.51499,232.46266 c 2.40625,-2.22029 4.375,-4.32819 4.375,-4.68423 0,-0.35604 -0.35236,-0.93977 -0.78301,-1.29719 -0.67435,-0.55966 -1.41292,-0.0199 -5.32239,3.88955 -3.16766,3.16766 -4.4467,4.78089 -4.23268,5.33861 0.53736,1.40034 1.48732,0.88311 5.96308,-3.24674 z"
       id="path3124"
       inkscape:connector-curvature="0" />
    <path
       style="fill:none;stroke:#000000;stroke-width:0.25;stroke-miterlimit:4;stroke-opacity:1;stroke-dasharray:none"
       d="m 237.37134,233.2811 c 0.48621,-0.58584 0.35206,-1.05759 -0.68877,-2.42219 -0.71092,-0.93207 -1.29258,-1.87116 -1.29258,-2.08687 0,-0.21571 0.81042,-1.28924 1.80093,-2.38562 1.51319,-1.67492 1.75294,-2.24383 1.50054,-3.5606 -0.34413,-1.79533 -2.38559,-3.81718 -3.85418,-3.81718 -1.50269,0 -3.48224,1.1954 -5.59634,3.37949 l -1.89904,1.96192 4.14904,4.82523 c 2.28198,2.65388 4.40275,4.82706 4.71283,4.8293 0.31007,0.002 0.83548,-0.32333 1.16757,-0.72348 z"
       id="path3122"
       inkscape:connector-curvature="0" />
    <path
       style="fill:none;stroke:#000000;stroke-width:0.25;stroke-miterlimit:4;stroke-opacity:1;stroke-dasharray:none"
       d="m 232.1135,225.47937 c -0.69532,-0.76832 -0.80157,-1.23521 -0.41908,-1.84159 0.89155,-1.41339 2.10014,-1.93413 3.07057,-1.32299 1.27349,0.80198 1.33184,1.98701 0.15574,3.16311 -1.28663,1.28663 -1.64401,1.28681 -2.80723,0.001 z"
       id="path3120"
       inkscape:connector-curvature="0" />
    <path
       style="fill:none;stroke:#000000;stroke-width:0.25;stroke-miterlimit:4;stroke-opacity:1;stroke-dasharray:none"
       d="m 361.64113,229.63364 c 0.17182,-1.30625 0.35572,-2.70356 0.40865,-3.10512 0.0529,-0.40157 0.87697,-0.8898 1.8312,-1.08496 1.99405,-0.40782 3.50901,-2.01514 3.50901,-3.72292 0,-2.04407 -6.14004,-7.80251 -7.45381,-6.99055 -1.19434,0.73814 -7.57247,9.52363 -7.43567,10.24219 0.27096,1.42339 2.09682,1.17783 3.29528,-0.44317 2.11216,-2.85685 3.72661,-1.28507 3.22759,3.14228 -0.20629,1.83017 -0.065,2.58407 0.62769,3.3495 1.32269,1.46155 1.64486,1.23697 1.99006,-1.38725 z"
       id="path3118"
       inkscape:connector-curvature="0" />
    <path
       style="fill:none;stroke:#000000;stroke-width:0.25;stroke-miterlimit:4;stroke-opacity:1;stroke-dasharray:none"
       d="m 249.21415,223.74568 c 0.38672,-1.00777 -6.33482,-11.28116 -7.27057,-11.11254 -0.38303,0.069 -0.91724,0.47623 -1.18715,0.90491 -0.68688,1.09094 5.79459,10.97059 7.19717,10.97059 0.53228,0 1.09952,-0.34333 1.26055,-0.76296 z"
       id="path3114"
       inkscape:connector-curvature="0" />
    <path
       style="fill:none;stroke:#000000;stroke-width:0.25;stroke-miterlimit:4;stroke-opacity:1;stroke-dasharray:none"
       d="m 348.04069,215.47337 c 1.61376,-2.8332 2.35121,-3.68826 3.10759,-3.60316 0.54544,0.0614 1.55421,0.17386 2.24171,0.25 0.93643,0.1037 1.25,-0.0957 1.25,-0.79512 0,-1.00168 -6.72766,-5.24421 -8.39069,-5.29125 -1.57777,-0.0446 -1.61726,1.48155 -0.0702,2.7151 l 1.43341,1.14295 -1.32935,2.43338 c -3.98103,7.28727 -3.75307,6.64916 -2.66587,7.46227 1.25764,0.94058 1.6463,0.56152 4.42345,-4.31417 z"
       id="path3112"
       inkscape:connector-curvature="0" />
    <path
       style="fill:none;stroke:#000000;stroke-width:0.25;stroke-miterlimit:4;stroke-opacity:1;stroke-dasharray:none"
       d="m 258.35497,218.30083 c 0.46576,-0.5612 0.11665,-1.6452 -1.68545,-5.23339 -2.37485,-4.7286 -2.3736,-4.66757 -0.12732,-6.21405 0.95554,-0.65785 0.71702,-2.34702 -0.33071,-2.34203 -0.81283,0.004 -9.32307,4.48079 -9.31385,4.89968 0.004,0.19118 0.21909,0.682 0.47751,1.09071 0.3912,0.61873 0.73694,0.64229 2.06561,0.14077 0.87767,-0.33128 1.7934,-0.48019 2.03495,-0.3309 0.24155,0.14928 1.24711,1.88593 2.23458,3.85922 2.56235,5.1204 3.28755,5.76524 4.64468,4.12999 z"
       id="path3110"
       inkscape:connector-curvature="0" />
    <path
       style="fill:none;stroke:#000000;stroke-width:0.25;stroke-miterlimit:4;stroke-opacity:1;stroke-dasharray:none"
       d="m 266.85681,214.5264 c 0.49559,-0.26524 1.03842,-1.16895 1.20628,-2.00825 0.45327,-2.26638 4.41372,-3.46229 5.8269,-1.75951 0.78644,0.9476 2.94408,0.97751 3.30162,0.0457 0.15802,-0.4118 -1.45611,-2.79948 -3.88715,-5.75 -3.45132,-4.18882 -4.3936,-5.04575 -5.5483,-5.04575 -1.87738,0 -2.16872,0.97306 -2.49719,8.34039 -0.30661,6.87722 -0.23405,7.15776 1.59784,6.17737 z"
       id="path3108"
       inkscape:connector-curvature="0" />
    <path
       style="fill:none;stroke:#000000;stroke-width:0.25;stroke-miterlimit:4;stroke-opacity:1;stroke-dasharray:none"
       d="m 268.38999,206.25864 c 0,-1.36481 0.46794,-1.58206 1.4,-0.65 0.92009,0.92009 0.7138,1.9 -0.4,1.9 -0.73334,0 -1,-0.33334 -1,-1.25 z"
       id="path3106"
       inkscape:connector-curvature="0" />
    <path
       style="fill:none;stroke:#000000;stroke-width:0.25;stroke-miterlimit:4;stroke-opacity:1;stroke-dasharray:none"
       d="m 335.04786,214.42697 c 1.59976,-0.85204 2.30828,-1.97352 2.32623,-3.68208 0.0198,-1.8854 -0.97227,-3.33836 -3.23373,-4.73602 -1.87746,-1.16034 -2.24339,-2.20405 -0.94714,-2.70147 0.52884,-0.20294 1.35228,0.2912 2.4105,1.4465 2.031,2.21735 3.28627,2.31465 3.28627,0.25474 0,-2.51201 -2.74125,-4.5 -6.20506,-4.5 -1.63401,0 -2.84901,0.92007 -3.44784,2.61091 -0.52818,1.49135 0.64637,3.74856 2.68613,5.16212 1.99484,1.38242 2.57851,3.0236 1.25584,3.53116 -1.05152,0.40351 -2.64835,-0.62385 -3.3934,-2.18321 -0.36902,-0.77236 -1.14421,-1.44075 -1.77536,-1.53076 -0.95618,-0.13636 -1.12031,0.0699 -1.12031,1.40787 0,2.79743 1.3352,4.21346 4.75,5.03755 2.16508,0.5225 2.20944,0.52097 3.40787,-0.11731 z"
       id="path3104"
       inkscape:connector-curvature="0" />
    <path
       style="fill:none;stroke:#000000;stroke-width:0.25;stroke-miterlimit:4;stroke-opacity:1;stroke-dasharray:none"
       d="m 322.98723,204.75864 c 0.76164,-3.3 1.2834,-6.28125 1.15947,-6.625 -0.12393,-0.34375 -0.77604,-0.625 -1.44913,-0.625 -1.14619,0 -1.30572,0.34937 -2.51569,5.50937 -1.73242,7.38802 -1.68961,8.19418 0.41876,7.88672 0.84518,-0.12325 1.21829,-1.08409 2.38659,-6.14609 z"
       id="path3102"
       inkscape:connector-curvature="0" />
    <path
       style="fill:none;stroke:#000000;stroke-width:0.25;stroke-miterlimit:4;stroke-opacity:1;stroke-dasharray:none"
       d="m 289.40459,209.18072 c 1.16308,-0.23262 1.4854,-0.5634 1.4854,-1.52438 0,-1.21197 -0.0403,-1.22298 -3.22649,-0.88177 -3.72329,0.39873 -3.38438,0.86024 -4.4555,-6.06735 -0.57018,-3.68772 -0.69124,-3.94858 -1.83242,-3.94858 -1.66142,0 -1.73654,0.80792 -0.7079,7.61267 l 0.87074,5.76021 3.19039,-0.32686 c 1.75472,-0.17978 3.85882,-0.46055 4.67578,-0.62394 z"
       id="path3100"
       inkscape:connector-curvature="0" />
    <path
       style="fill:none;stroke:#000000;stroke-width:0.25;stroke-miterlimit:4;stroke-opacity:1;stroke-dasharray:none"
       d="m 312.28159,208.22829 c 2.66786,-1.86865 3.52943,-7.45299 1.63038,-10.56752 -1.0685,-1.75238 -2.80394,-2.31848 -7.27198,-2.37212 l -2.5,-0.03 -0.578,5.25 c -0.82014,7.44941 -0.80916,7.89083 0.203,8.15533 2.22338,0.58104 7.44651,0.31383 8.5166,-0.43568 z"
       id="path3098"
       inkscape:connector-curvature="0" />
    <path
       style="fill:none;stroke:#000000;stroke-width:0.25;stroke-miterlimit:4;stroke-opacity:1;stroke-dasharray:none"
       d="m 307.01499,206.1775 c -0.67284,-0.2715 -0.84625,-3.9376 -0.3125,-6.60636 0.26304,-1.31522 0.54,-1.5625 1.75,-1.5625 0.79729,0 1.90889,0.47139 2.49594,1.05844 0.86935,0.86935 1.01219,1.46876 0.79955,3.35527 -0.35371,3.13814 -2.34558,4.71849 -4.73299,3.75515 z"
       id="path3094"
       inkscape:connector-curvature="0" />
    <path
       style="fill:none;stroke:#000000;stroke-width:0.25;stroke-miterlimit:4;stroke-opacity:1;stroke-dasharray:none"
       d="m 290.00162,402.17304 c -0.3511,-0.14116 -1.10857,-1.19214 -1.68326,-2.33553 -1.53045,-3.04494 -2.43124,-3.94894 -3.25427,-3.26588 -0.37076,0.3077 -0.6741,1.19083 -0.6741,1.96252 0,1.74785 -1.1609,2.96954 -2.49121,2.62166 -0.78287,-0.20472 -1.00485,-0.67065 -0.9912,-2.08049 0.0281,-2.8961 1.28848,-11.07315 1.78226,-11.56248 0.72367,-0.71714 7.78524,0.37275 9.20015,1.41997 1.85091,1.36992 1.9358,3.98119 0.19661,6.04808 l -1.35548,1.6109 1.07943,2.2218 c 0.59369,1.22199 1.07944,2.55328 1.07944,2.95842 0,0.72447 -1.54895,0.93953 -2.88837,0.40103 z"
       id="path3256"
       inkscape:connector-curvature="0" />
    <path
       style="fill:none;stroke:#000000;stroke-width:0.25;stroke-miterlimit:4;stroke-opacity:1;stroke-dasharray:none"
       d="m 289.03509,392.88364 c 1.20376,-0.89969 0.3323,-1.94635 -1.7017,-2.04384 -1.3883,-0.0665 -1.72128,0.11457 -1.84811,1.00517 -0.11395,0.80013 0.1495,1.14444 1,1.30691 0.63509,0.12132 1.28045,0.25122 1.43414,0.28867 0.15369,0.0375 0.65574,-0.21316 1.11567,-0.55691 z"
       id="path3254"
       inkscape:connector-curvature="0" />
    <path
       style="fill:none;stroke:#000000;stroke-width:0.25;stroke-miterlimit:4;stroke-opacity:1;stroke-dasharray:none"
       d="m 299.17781,401.38364 c -0.12718,-0.61875 -0.36897,-3.50582 -0.53732,-6.41571 -0.23428,-4.04941 -0.15293,-5.41197 0.3467,-5.80755 0.35904,-0.28427 2.48935,-0.66332 4.73403,-0.84234 3.32337,-0.26506 4.22469,-0.18205 4.85376,0.44702 1.35349,1.35349 0.44383,2.11328 -2.96747,2.4786 -2.72012,0.2913 -3.21752,0.49301 -3.21752,1.30477 0,0.84946 0.37869,0.96021 3.28321,0.96021 l 3.28321,0 -0.15821,1.375 c -0.14009,1.21753 -0.38726,1.39026 -2.15821,1.50827 -3.60035,0.23991 -4.32964,0.54854 -4.15746,1.7594 0.1437,1.01061 0.47408,1.12016 3.78246,1.25423 3.42959,0.13899 3.625,0.21022 3.625,1.32151 0,1.55615 -0.7632,1.78159 -6.03137,1.78159 -4.21253,0 -4.4619,-0.0599 -4.68081,-1.125 z"
       id="path3252"
       inkscape:connector-curvature="0" />
    <path
       style="fill:none;stroke:#000000;stroke-width:0.25;stroke-miterlimit:4;stroke-opacity:1;stroke-dasharray:none"
       d="m 318.05128,399.83291 c -0.50121,-0.64664 -2.03251,-3.46969 -3.40288,-6.27343 -2.09891,-4.2943 -2.37471,-5.17327 -1.75,-5.57714 1.56654,-1.01275 2.70109,-0.26575 4.21667,2.7763 l 1.49463,3 0.26515,-3.35108 c 0.28693,-3.62658 0.58161,-4.15949 2.57153,-4.65053 1.18363,-0.29207 1.45831,-0.0532 2.92282,2.54177 1.79454,3.17975 2.54412,3.00668 2.14929,-0.49625 -0.26246,-2.32855 0.66731,-3.79391 2.40721,-3.79391 0.90653,0 0.96429,0.41988 0.96429,7.01072 0,6.97048 -0.007,7.01395 -1.2352,7.57351 -1.54024,0.70178 -2.41904,0.0644 -3.86185,-2.80078 -2.15906,-4.28759 -2.88281,-4.01163 -2.8953,1.10392 -0.007,2.90453 -0.10284,3.17357 -1.2902,3.625 -1.65661,0.62985 -1.50248,0.67134 -2.55616,-0.6881 z"
       id="path3250"
       inkscape:connector-curvature="0" />
    <path
       style="fill:none;stroke:#000000;stroke-width:0.25;stroke-miterlimit:4;stroke-opacity:1;stroke-dasharray:none"
       d="m 266.7745,397.3198 c -1.85102,-0.61901 -3.5288,-1.28878 -3.7284,-1.48838 -0.1996,-0.1996 0.54152,-3.11013 1.64692,-6.46784 1.81521,-5.51378 2.13165,-6.11946 3.26792,-6.25491 1.66047,-0.19792 6.55453,1.65739 7.69437,2.9169 1.1129,1.22974 1.16824,3.67291 0.10989,4.85161 -0.49841,0.55509 -0.69347,1.38715 -0.52681,2.24722 0.41649,2.14943 -0.2373,3.80111 -1.83082,4.62514 -1.88566,0.97512 -2.5635,0.9312 -6.63307,-0.42974 z"
       id="path3248"
       inkscape:connector-curvature="0" />
    <path
       style="fill:none;stroke:#000000;stroke-width:0.25;stroke-miterlimit:4;stroke-opacity:1;stroke-dasharray:none"
       d="m 271.79445,393.89884 c 0.1761,-0.92884 -2.63846,-2.42628 -3.77946,-2.0108 -0.91992,0.33498 -0.76029,1.99027 0.25,2.59243 1.28066,0.7633 3.33877,0.42414 3.52946,-0.58163 z"
       id="path3246"
       inkscape:connector-curvature="0" />
    <path
       style="fill:none;stroke:#000000;stroke-width:0.25;stroke-miterlimit:4;stroke-opacity:1;stroke-dasharray:none"
       d="m 272.78477,388.43571 c 0.16358,-0.84938 -2.60437,-2.16558 -3.45222,-1.64158 -0.82802,0.51175 -0.44624,1.74523 0.68244,2.2049 1.53211,0.62396 2.58227,0.41038 2.76978,-0.56332 z"
       id="path3244"
       inkscape:connector-curvature="0" />
    <path
       style="fill:none;stroke:#000000;stroke-width:0.25;stroke-miterlimit:4;stroke-opacity:1;stroke-dasharray:none"
       d="m 251.51499,390.69962 c -2.26875,-1.25187 -4.125,-2.54341 -4.125,-2.87008 0,-0.89253 5.37785,-10.93639 6.0921,-11.37783 0.744,-0.45981 8.37518,3.38989 8.77259,4.42551 0.14963,0.38993 -0.0622,1.04324 -0.47079,1.4518 -0.65712,0.65712 -1.06857,0.58309 -3.56558,-0.64156 -2.2852,-1.12077 -2.94229,-1.26285 -3.45053,-0.74612 -0.69539,0.70701 0.13017,1.55991 3.06745,3.16904 1.67171,0.91582 2.04413,2.24185 0.76723,2.73184 -0.43313,0.16621 -1.87245,-0.20595 -3.19849,-0.82703 -2.55456,-1.19649 -3.51398,-1.05601 -3.51398,0.51453 0,0.65343 0.80955,1.3723 2.52349,2.24082 1.38792,0.70332 2.65059,1.60997 2.80594,2.01479 0.27043,0.70474 -0.61074,2.24119 -1.26565,2.20686 -0.17258,-0.009 -2.17003,-1.04071 -4.43878,-2.29257 z"
       id="path3242"
       inkscape:connector-curvature="0" />
    <path
       style="fill:none;stroke:#000000;stroke-width:0.25;stroke-miterlimit:4;stroke-opacity:1;stroke-dasharray:none"
       d="m 348.05343,388.66081 c -2.56225,-0.49909 -5.32348,-4.67681 -5.32753,-8.06051 -0.002,-1.80665 0.286,-2.4469 1.76849,-3.9294 2.08833,-2.08833 5.43388,-2.78163 7.1456,-1.48079 1.5614,1.1866 0.43349,2.52956 -2.29112,2.7279 -1.20409,0.0877 -2.47493,0.39646 -2.82407,0.68623 -1.80737,1.49998 0.7489,6.9109 3.25821,6.89674 1.83773,-0.0104 2.50062,-0.51368 2.79186,-2.11974 0.35459,-1.95547 0.72285,-2.3726 2.09463,-2.3726 1.08347,0 1.22049,0.21695 1.22049,1.93257 0,2.32655 -1.46976,4.3969 -3.81789,5.37802 -1.66347,0.69504 -2.03983,0.72703 -4.01867,0.34158 z"
       id="path3240"
       inkscape:connector-curvature="0" />
    <path
       style="fill:none;stroke:#000000;stroke-width:0.25;stroke-miterlimit:4;stroke-opacity:1;stroke-dasharray:none"
       d="m 239.73479,383.43172 c -1.15435,-0.646 -1.06497,-1.29003 0.45569,-3.28373 0.71527,-0.93777 1.20873,-1.79679 1.09658,-1.90895 -0.11216,-0.11215 -1.02294,0.35263 -2.02397,1.03284 -2.11348,1.43615 -2.99935,1.53956 -3.8993,0.45519 -0.53542,-0.64514 -0.50203,-1.19063 0.19125,-3.125 1.22628,-3.42152 1.051,-3.59712 -1.10029,-1.10234 -1.69142,1.9615 -2.03434,2.1566 -2.74864,1.56378 -0.44887,-0.37252 -0.81612,-0.94869 -0.81612,-1.28037 0,-0.78422 7.44946,-10.2745 8.06504,-10.2745 0.25858,0 1.02472,0.36337 1.70255,0.8075 1.39955,0.91702 1.59187,2.53535 0.54575,4.59233 -1.03809,2.04119 -1.43535,3.60017 -0.9174,3.60017 0.25483,0 1.45124,-0.78532 2.65869,-1.74515 1.20745,-0.95983 2.48453,-1.74733 2.83796,-1.75 1.10364,-0.008 3.10741,1.57027 3.10741,2.44808 0,0.86159 -6.8305,9.84021 -7.7802,10.22699 -0.29161,0.11877 -0.91036,0.003 -1.375,-0.25684 z"
       id="path3238"
       inkscape:connector-curvature="0" />
    <path
       style="fill:none;stroke:#000000;stroke-width:0.25;stroke-miterlimit:4;stroke-opacity:1;stroke-dasharray:none"
       d="m 360.05436,376.63364 c -4.75647,-5.38474 -5.43352,-6.44824 -4.68172,-7.3541 0.98637,-1.1885 1.82909,-0.93489 3.6687,1.1041 0.93041,1.03125 2.46626,2.74125 3.413,3.8 l 1.72134,1.925 2.18126,-1.82239 c 2.35015,-1.9635 3.78305,-2.14072 3.78305,-0.46789 0,1.05254 -5.42775,6.17679 -6.55221,6.18583 -0.30371,0.002 -1.89375,-1.5143 -3.53342,-3.37055 z"
       id="path3236"
       inkscape:connector-curvature="0" />
    <path
       style="fill:none;stroke:#000000;stroke-width:0.25;stroke-miterlimit:4;stroke-opacity:1;stroke-dasharray:none"
       d="m 223.39995,368.13286 c -2.45525,-1.23356 -4.00996,-3.7591 -4.00996,-6.51395 0,-1.9748 0.25604,-2.49789 2.14944,-4.3913 3.55369,-3.55368 6.96601,-3.6227 10.05515,-0.20339 1.48072,1.63897 1.79541,2.36846 1.79541,4.16192 0,2.84487 -1.60594,5.24305 -4.48498,6.6975 -2.67906,1.35342 -3.25536,1.37951 -5.50506,0.24922 z"
       id="path3228"
       inkscape:connector-curvature="0" />
    <path
       style="fill:none;stroke:#000000;stroke-width:0.25;stroke-miterlimit:4;stroke-opacity:1;stroke-dasharray:none"
       d="m 228.62259,363.95684 c 1.1614,-1.01973 1.7674,-1.99199 1.7674,-2.83563 0,-3.2452 -3.94751,-4.24199 -6.53846,-1.65103 -1.7178,1.71779 -1.89104,3.60896 -0.46154,5.03846 1.42516,1.42516 3.19334,1.2387 5.2326,-0.5518 z"
       id="path3226"
       inkscape:connector-curvature="0" />
    <path
       style="fill:none;stroke:#000000;stroke-width:0.25;stroke-miterlimit:4;stroke-opacity:1;stroke-dasharray:none"
       d="m 370.56453,365.30544 c -3.89822,-2.93672 -5.37018,-4.56579 -4.99914,-5.5327 0.64167,-1.67216 1.82423,-1.3401 5.18672,1.4564 2.65894,2.21137 3.69901,2.78662 4.83393,2.67356 0.98279,-0.0979 1.58304,-0.51724 1.87363,-1.3089 0.47051,-1.28182 -0.0874,-1.96796 -4.81968,-5.92721 -2.12857,-1.78087 -2.41813,-2.22655 -1.94894,-2.99979 1.06364,-1.7529 2.34749,-1.27131 6.32394,2.3722 3.16583,2.90077 3.875,3.82221 3.875,5.03493 0,3.21268 -2.88814,6.43471 -5.76789,6.43471 -1.1545,0 -2.49001,-0.64561 -4.55757,-2.2032 z"
       id="path3224"
       inkscape:connector-curvature="0" />
    <path
       style="fill:none;stroke:#000000;stroke-width:0.25;stroke-miterlimit:4;stroke-opacity:1;stroke-dasharray:none"
       d="m 212.19348,354.21774 c -0.59447,-1.54916 -0.27767,-2.15963 1.69651,-3.26918 2.26461,-1.27279 2.33095,-1.47536 1.14219,-3.48778 -1.01362,-1.71592 -1.40515,-1.76811 -3.39219,-0.45214 -2.36828,1.56844 -3.75,1.12422 -3.75,-1.20562 0,-0.34311 2.47449,-2.04018 5.49887,-3.77127 4.55518,-2.60729 5.62777,-3.04045 6.25,-2.52405 1.19573,0.99237 0.88194,2.40761 -0.71717,3.23454 -2.0133,1.04112 -2.1952,1.49989 -1.2893,3.25171 0.85687,1.657 2.03466,1.91693 3.53703,0.78059 1.80494,-1.36519 3.22057,-0.71392 3.22057,1.48163 0,0.67396 -10.15635,6.75247 -11.28244,6.75247 -0.33582,0 -0.74715,-0.3559 -0.91407,-0.7909 z"
       id="path3222"
       inkscape:connector-curvature="0" />
    <path
       style="fill:none;stroke:#000000;stroke-width:0.25;stroke-miterlimit:4;stroke-opacity:1;stroke-dasharray:none"
       d="m 385.11987,353.71148 c -6.166,-3.17619 -9.72988,-5.47114 -9.72988,-6.26552 0,-1.26279 3.36031,-6.82738 4.487,-7.43037 1.55142,-0.83029 2.9818,-0.5836 4.30845,0.74305 0.81767,0.81766 1.80893,1.25 2.86602,1.25 2.03357,0 3.6283,1.0943 4.0514,2.78006 0.35886,1.42985 -2.16579,7.56985 -3.6737,8.93448 -0.73774,0.66765 -0.99296,0.66636 -2.30929,-0.0117 z"
       id="path3220"
       inkscape:connector-curvature="0" />
    <path
       style="fill:none;stroke:#000000;stroke-width:0.25;stroke-miterlimit:4;stroke-opacity:1;stroke-dasharray:none"
       d="m 387.24307,348.25363 c 1.41689,-2.97125 -0.79349,-3.82696 -2.63309,-1.01936 -0.67607,1.03181 -0.71824,1.42402 -0.21792,2.02687 1.0014,1.2066 1.95605,0.86924 2.85101,-1.00751 z"
       id="path3218"
       inkscape:connector-curvature="0" />
    <path
       style="fill:none;stroke:#000000;stroke-width:0.25;stroke-miterlimit:4;stroke-opacity:1;stroke-dasharray:none"
       d="m 381.8724,346.04151 c 0.7542,-1.40925 0.63595,-3.03287 -0.22089,-3.03287 -0.97879,0 -2.44857,2.29138 -2.08219,3.24614 0.40576,1.05739 1.68651,0.93879 2.30308,-0.21327 z"
       id="path3216"
       inkscape:connector-curvature="0" />
    <path
       style="fill:none;stroke:#000000;stroke-width:0.25;stroke-miterlimit:4;stroke-opacity:1;stroke-dasharray:none"
       d="m 325.13999,373.03949 c 5.78861,-3.01417 8.15209,-4.54869 9.96355,-6.46896 1.66919,-1.76946 1.47004,-2.53285 -0.34972,-1.3405 -0.67261,0.44071 -1.58881,0.66089 -2.036,0.48929 -0.49489,-0.18991 -1.41795,0.19697 -2.35881,0.98866 -0.85016,0.71536 -1.92223,1.30071 -2.38239,1.30077 -0.46015,6e-5 -2.07413,0.66614 -3.58663,1.48016 -1.5125,0.81403 -2.91877,1.48898 -3.12505,1.49989 -0.20627,0.0109 -0.34896,-1.04891 -0.31709,-2.35516 0.0318,-1.30625 -0.44547,-4.9625 -1.06075,-8.125 -0.61529,-3.1625 -1.28367,-8.5625 -1.48528,-12 -0.3528,-6.01523 -1.46016,-11.10003 -2.5662,-11.78361 -1.0165,-0.62823 -2.53873,-4.99633 -2.95043,-8.46639 -0.38614,-3.25461 -1.68534,-9.10681 -2.11773,-9.5392 -0.10426,-0.10426 -2.84335,0.48066 -6.08686,1.29982 -3.24351,0.81916 -6.36186,1.48938 -6.92966,1.48938 -1.554,0 -5.30455,4.2373 -6.93672,7.83696 -0.79288,1.74866 -2.21759,4.0383 -3.16602,5.0881 -1.28553,1.42293 -1.5801,2.05305 -1.15738,2.47577 0.61227,0.61227 1.93697,3.87798 2.06843,5.09917 0.0444,0.4125 -1.10674,1.85536 -2.5581,3.20637 -3.02598,2.81673 -4.50398,3.23971 -12.11116,3.46602 -7.43419,0.22116 -11.71798,2.5382 -9.25194,5.00424 0.79881,0.79882 1.75194,2.98258 1.75194,4.01399 0,0.34404 -1.4625,2.24934 -3.25,4.23401 -2.69298,2.99002 -3.25,3.90827 -3.25,5.35762 0,1.14318 0.27754,1.85564 0.80116,2.05657 0.44064,0.16909 9.38439,-1.41798 19.875,-3.52682 10.49061,-2.10884 19.588,-3.82925 20.21643,-3.82313 1.54631,0.0151 3.60088,1.42885 4.14101,2.84951 0.48138,1.26613 3.64741,2.84498 8.74465,4.36081 1.66553,0.4953 3.56995,1.30915 4.23203,1.80856 1.09614,0.82683 1.14356,1.02053 0.53031,2.1664 -0.37041,0.69211 -0.53218,1.62658 -0.35949,2.07659 0.40576,1.05741 1.33591,0.76531 7.0689,-2.21989 z"
       id="path3232"
       inkscape:connector-curvature="0" />
    <path
       style="fill:none;stroke:#000000;stroke-width:0.25;stroke-miterlimit:4;stroke-opacity:1;stroke-dasharray:none"
       d="m 191.04345,279.18736 c -0.17334,-0.4517 0.37813,-3.56322 1.22548,-6.91448 7.42384,-29.36117 26.71452,-54.63014 52.96656,-69.38118 16.17421,-9.0883 32.52235,-13.63414 51.1545,-14.22424 40.21904,-1.27378 77.80947,19.37128 98.69002,54.20162 3.20682,5.34921 7.64736,15.13865 9.73358,21.45823 2.32262,7.03573 3.85842,13.72519 3.41588,14.87845 -0.28157,0.73375 -9.63085,0.80288 -108.58948,0.80288 -99.96565,0 -108.30559,-0.0631 -108.59654,-0.82128 z"
       id="path3142"
       inkscape:connector-curvature="0" />
    <path
       style="fill:none;stroke:#000000;stroke-width:0.25;stroke-miterlimit:4;stroke-opacity:1;stroke-dasharray:none"
       d="m 292.52539,409.96817 c -48.56521,-3.56017 -89.05245,-37.51262 -100.41724,-84.20953 -1.56214,-6.4187 -1.56686,-6.34702 0.40497,-6.15668 l 1.62314,0.15668 1.59546,6.06299 c 5.07311,19.27858 14.09736,35.11298 27.90311,48.96021 13.71188,13.75307 28.80844,22.72019 46.75516,27.77181 16.31513,4.59236 34.87551,5.19381 51.82353,1.67933 31.82291,-6.59905 60.12511,-28.8991 74.21295,-58.47434 3.52843,-7.4074 5.09391,-11.71502 7.17757,-19.75 l 1.62077,-6.25 1.58259,-0.15668 c 2.03515,-0.20149 2.04411,0.37743 0.11912,7.69747 -8.19197,31.15105 -29.35137,57.03742 -58.36078,71.39849 -17.11779,8.47414 -37.7048,12.61438 -56.04035,11.27025 z"
       id="path3258"
       inkscape:connector-curvature="0" />
    <path
       style="fill:none;stroke:#000000;stroke-width:0.25;stroke-miterlimit:4;stroke-opacity:1;stroke-dasharray:none;display:inline"
       d="m 361.38067,222.16572 c -1.71766,-1.17556 -1.99709,-1.71086 -1.4382,-2.75514 0.67921,-1.26911 2.0676,-1.1208 3.46863,0.37053 0.92208,0.98151 1.07675,1.4606 0.67643,2.09524 -0.74886,1.18719 -1.30773,1.24693 -2.70686,0.28937 z"
       id="path3116"
       inkscape:connector-curvature="0" />
    <path
       style="fill:none;stroke:#000000;stroke-width:0.25;stroke-miterlimit:4;stroke-opacity:1;stroke-dasharray:none;display:inline"
       d="m 245.38999,274.50864 c 0,-1.88889 0.0833,-2 1.5,-2 l 1.5,0 0,-12.25 c 0,-11.7958 0.036,-12.25 0.97125,-12.25 0.7852,0 1.0007,-0.40707 1.125,-2.125 l 0.15375,-2.125 2.375,-0.1524 2.375,-0.15239 0,-6.97261 0,-6.9726 1.5,0 1.5,0 0,-3.47165 c 0,-3.02069 0.14435,-3.57275 1.11125,-4.25 1.52167,-1.06582 8.86233,-1.07625 10.91358,-0.0155 1.41963,0.73412 1.47517,0.89413 1.47517,4.25 l 0,3.48716 1.75,0 1.75,0 0,21.5 0,21.5 4.25,0 4.25,0 0.048,-5.625 c 0.15358,-17.98592 0.1103,-17.38665 1.32696,-18.37314 0.77671,-0.62976 1.125,-1.45126 1.125,-2.65351 0,-1.9758 0.56696,-2.34835 3.57377,-2.34835 2.91254,0 3.92623,0.71 3.92623,2.75 0,1.20309 0.29842,1.87452 1,2.25 0.95639,0.51184 1,1.04691 1,12.26759 l -10e-6,11.7324 4.25,0 4.25,0 0,-11.66974 0,-11.66975 1.25,-0.56954 c 1.03026,-0.46941 1.25,-0.92133 1.25,-2.57073 0,-2.29956 0.74714,-2.69915 4.5401,-2.42814 2.2011,0.15727 2.2105,0.16609 2.36029,2.21421 0.11837,1.61845 0.41115,2.17512 1.375,2.61428 1.19499,0.54447 1.22461,0.69552 1.22461,6.24458 l 0,5.68661 3.875,0.30857 c 6.43244,0.51221 13.76153,2.95438 17.09052,5.69483 1.12841,0.92892 1.16835,1.11451 0.55732,2.58967 -0.36201,0.87397 -1.22059,2.03142 -1.90795,2.57209 l -1.24975,0.98306 3.81743,0 3.81743,0 0,-11.49577 c 0,-10.95426 0.0471,-11.52518 1,-12.12027 0.71381,-0.44578 1,-1.16601 1,-2.51661 0,-2.24378 1.09444,-2.86735 5.03255,-2.86735 l 2.46745,0 0,2 c 0,1.34201 0.22125,2 0.6725,2 0.36988,0 1.04488,0.41146 1.5,0.91437 0.71988,0.79545 0.8275,2.42111 0.8275,12.5 0,11.25229 0.0288,11.58563 1,11.58563 0.83333,0 1,0.33333 1,2 l 0,2 -55.75,0 -55.75,0 0,-2 z"
       id="path4344"
       inkscape:connector-curvature="0" />
    <path
       style="fill:none;stroke:#000000;stroke-width:0.25;stroke-miterlimit:4;stroke-opacity:1;stroke-dasharray:none;display:inline"
       d="m 355.73887,273.75864 c -3.96496,0.29564 -4.03377,-0.0606 -4.03377,-0.0606 l 0.18489,-12.48338 0,-12.20605 -2,0 -2,0 0,12.5 0,12.5 -9.75,0 -9.75,0 0,-1.16735 c 0,-1.05315 -0.31678,-1.21469 -3.23816,-1.65128 -2.9793,-0.44525 -3.17914,-0.41873 -2.5,0.33172 0.40599,0.44861 0.73816,1.18211 0.73816,1.63001 0,0.69507 -0.6043,0.79917 -4.125,0.71063 -3.99048,-0.10035 -4.13033,-0.1445 -4.28838,-1.35373 -0.0953,-0.72902 -0.95992,-1.87519 -2.07453,-2.75 -2.35724,-1.85012 -3.51209,-3.69908 -3.51209,-5.623 0,-1.27181 0.25914,-1.54636 1.93301,-2.04786 1.06315,-0.31853 2.30065,-0.57914 2.75,-0.57914 0.71015,0 0.81699,-0.77699 0.81699,-5.94169 0,-6.66307 0.0799,-6.53617 -4.125,-6.55149 l -1.875,-0.007 -0.008,11.875 c -0.004,6.53125 0.20908,12.4294 -0.0143,12.78146 -0.30465,0.48009 -2.48347,0.33874 -7.51687,0.23365 l -7.23413,-0.14011 -0.0686,-24.75 c -6.61802,-0.0102 -6.64094,0 -6.64094,0 -0.0892,8.25 0.0832,16.5 -0.006,24.75 l -6.76147,0 c -33.96868,0.1061 0.0216,0.16849 -34.0981,0.11682"
       id="path4342"
       inkscape:connector-curvature="0"
       sodipodi:nodetypes="ccccccccccssssssssssssccsscccccc" />
    <path
       style="fill:none;stroke:#000000;stroke-width:0.25;stroke-miterlimit:4;stroke-opacity:1;stroke-dasharray:none;display:inline"
       d="m 320.30165,271.68809 c -0.14649,-0.74355 -4.32787,-2.42991 -4.81562,-1.94216 -0.15654,0.15654 4.23756,2.65618 4.81562,2.73943 0.0889,0.0128 0.0889,-0.34597 0,-0.79727 z"
       id="path4338"
       inkscape:connector-curvature="0" />
    <path
       style="fill:none;stroke:#000000;stroke-width:0.25;stroke-miterlimit:4;stroke-opacity:1;stroke-dasharray:none;display:inline"
       d="m 332.89446,270.69851 c 1.11358,-0.44557 2.25044,-1.23193 2.52635,-1.74747 0.41654,-0.77831 0.22318,-1.10811 -1.13958,-1.94378 -5.89683,-3.61603 -18.88678,-5.64175 -22.78829,-3.55372 -0.88939,0.47598 -0.98581,0.76514 -0.56393,1.69108 0.59185,1.29896 6.95294,3.39394 14.287,4.70533 2.43319,0.43507 4.63773,0.98626 4.89898,1.22486 0.59968,0.5477 0.40394,0.5742 2.77947,-0.3763 z"
       id="path4334"
       inkscape:connector-curvature="0" />
    <path
       style="font-size:48px;font-style:normal;font-variant:normal;font-weight:normal;font-stretch:normal;line-height:125%;letter-spacing:0px;word-spacing:0px;fill:none;stroke:#000000;stroke-width:0.25;stroke-miterlimit:4;stroke-opacity:1;stroke-dasharray:none;font-family:DFPOP1-W9;-inkscape-font-specification:DFPOP1-W9"
       inkscape:connector-curvature="0"
       id="path4907"
       d="m 201.13749,314.13722 -3.06883,1.16404 c -0.34099,-2.50917 -0.62514,-4.73379 -0.85245,-6.67388 l -2.87703,0.23281 -0.0852,0.89243 c -0.14208,1.44861 -0.3552,3.29815 -0.63934,5.54864 l -3.06883,-1.43566 c 0.0142,-0.0776 0.24152,-1.51326 0.68196,-4.30698 l 3.53768,-22.11694 c 0.3978,-2.61261 0.83824,-3.91894 1.3213,-3.91897 0.3978,3e-5 0.83824,1.75904 1.3213,5.27702 l 0.9377,6.59628 c 1.1508,8.30357 2.08139,14.55064 2.79178,18.74121 z m -4.47538,-10.82567 c -0.0284,-0.43974 -0.0853,-1.1123 -0.17049,-2.01769 l -0.53278,-5.19942 c -0.0853,-0.85361 -0.12787,-1.53911 -0.12787,-2.05648 0,2e-5 -0.0639,0.65965 -0.1918,1.97888 l -0.72458,7.25591 c 0.25573,0.0259 0.68195,0.0389 1.27867,0.0389 z" />
    <path
       style="font-size:48px;font-style:normal;font-variant:normal;font-weight:normal;font-stretch:normal;line-height:125%;letter-spacing:0px;word-spacing:0px;fill:none;stroke:#000000;stroke-width:0.25;stroke-miterlimit:4;stroke-opacity:1;stroke-dasharray:none;font-family:DFPOP1-W9;-inkscape-font-specification:DFPOP1-W9"
       inkscape:connector-curvature="0"
       id="path4909"
       d="m 211.83577,309.0154 -0.23442,5.50983 c -1.64809,0.54322 -3.12567,0.8019 -4.43276,0.77603 -1.91802,-0.0517 -3.23932,-0.69843 -3.9639,-1.94008 -0.71038,-1.18992 -1.06557,-2.72904 -1.06557,-4.6174 0,-2.37982 0.0355,-4.74672 0.10656,-7.1007 l 0.57541,-18.12037 3.30325,0.15521 c -0.15629,2.06945 -0.25574,4.1518 -0.29836,6.24707 l -0.27705,14.35661 c -0.0143,0.46562 -0.0355,1.13819 -0.0639,2.01768 -0.0143,0.69844 -0.0213,1.18993 -0.0213,1.47446 0,0.72431 0.11366,1.24167 0.34099,1.55207 0.2131,0.31042 0.66775,0.46563 1.36392,0.46562 1.54862,-0.0258 3.10434,-0.28454 4.66718,-0.77603 z" />
    <path
       style="font-size:48px;font-style:normal;font-variant:normal;font-weight:normal;font-stretch:normal;line-height:125%;letter-spacing:0px;word-spacing:0px;fill:none;stroke:#000000;stroke-width:0.25;stroke-miterlimit:4;stroke-opacity:1;stroke-dasharray:none;font-family:DFPOP1-W9;-inkscape-font-specification:DFPOP1-W9"
       inkscape:connector-curvature="0"
       id="path4911"
       d="m 222.59799,305.75606 c -1e-5,2.32811 -0.29837,4.38459 -0.89508,6.16946 -0.7388,2.19877 -2.31583,3.32401 -4.73111,3.37574 -1.23606,0.0258 -2.64971,-0.27161 -4.24095,-0.89244 0.34098,-9.62279 0.53278,-19.78881 0.5754,-30.49809 1.07978,-0.18105 2.30162,-0.27158 3.66555,-0.27161 2.04588,3e-5 3.42401,0.8278 4.13439,2.4833 0.65354,1.57796 0.98742,3.34991 1.00164,5.31583 0.0142,2.61266 -0.61804,4.77262 -1.89671,6.47988 1.60544,1.83662 2.40106,4.44926 2.38687,7.83793 z m -3.81473,-13.9686 c -0.0427,-0.6984 -0.15629,-1.33216 -0.34098,-1.90128 -0.24154,-0.54319 -0.66066,-0.81481 -1.25737,-0.81483 -0.25574,2e-5 -0.44044,0.0259 -0.55409,0.0776 l -0.0853,5.39343 c 1.40655,-0.0517 2.15244,-0.97002 2.23769,-2.75492 z m 0.53278,13.27017 c 0,-1.37098 -0.1776,-2.35396 -0.53278,-2.94893 -0.32678,-0.59494 -0.87377,-0.89242 -1.64097,-0.89244 -0.1705,2e-5 -0.39782,0.0259 -0.68196,0.0776 l -0.10656,8.26476 c 0.34098,0.12935 0.69617,0.18108 1.06557,0.15521 1.26446,-0.0776 1.8967,-1.62967 1.8967,-4.6562 z" />
    <path
       style="font-size:48px;font-style:normal;font-variant:normal;font-weight:normal;font-stretch:normal;line-height:125%;letter-spacing:0px;word-spacing:0px;fill:none;stroke:#000000;stroke-width:0.25;stroke-miterlimit:4;stroke-opacity:1;stroke-dasharray:none;font-family:DFPOP1-W9;-inkscape-font-specification:DFPOP1-W9"
       inkscape:connector-curvature="0"
       id="path4913"
       d="m 233.87167,314.13722 -3.06882,1.16404 c -0.34099,-2.50917 -0.62515,-4.73379 -0.85246,-6.67388 l -2.87703,0.23281 -0.0852,0.89243 c -0.14208,1.44861 -0.3552,3.29815 -0.63934,5.54864 l -3.06883,-1.43566 c 0.0142,-0.0776 0.24153,-1.51326 0.68196,-4.30698 l 3.53768,-22.11694 c 0.39781,-2.61261 0.83824,-3.91894 1.3213,-3.91897 0.39781,3e-5 0.83824,1.75904 1.3213,5.27702 l 0.9377,6.59628 c 1.1508,8.30357 2.08139,14.55064 2.79178,18.74121 z m -4.47537,-10.82567 c -0.0284,-0.43974 -0.0853,-1.1123 -0.17049,-2.01769 l -0.53279,-5.19942 c -0.0853,-0.85361 -0.12787,-1.53911 -0.12787,-2.05648 0,2e-5 -0.0639,0.65965 -0.19179,1.97888 l -0.72459,7.25591 c 0.25573,0.0259 0.68196,0.0389 1.27868,0.0389 z" />
    <path
       style="font-size:48px;font-style:normal;font-variant:normal;font-weight:normal;font-stretch:normal;line-height:125%;letter-spacing:0px;word-spacing:0px;fill:none;stroke:#000000;stroke-width:0.25;stroke-miterlimit:4;stroke-opacity:1;stroke-dasharray:none;font-family:DFPOP1-W9;-inkscape-font-specification:DFPOP1-W9"
       inkscape:connector-curvature="0"
       id="path4915"
       d="m 244.35684,283.87193 -0.1918,5.39342 c -0.0995,2.81961 -0.20602,9.58403 -0.31967,20.29327 -0.0284,2.04355 -0.12788,3.59562 -0.29836,4.6562 -0.15629,0.69843 -0.34099,1.06058 -0.55409,1.08644 -0.34099,-0.0776 -0.63225,-0.60788 -0.87377,-1.59087 l -3.98521,-15.13264 0.0639,16.72351 -3.32457,-0.31041 c 0.12787,-3.95777 0.24153,-8.32941 0.34099,-13.11496 l 0.23442,-10.67045 c 0.071,-3.41452 0.17759,-5.471 0.31967,-6.16946 0.1847,-0.85361 0.42623,-1.28043 0.72458,-1.28046 0.22732,3e-5 0.43333,0.15524 0.61803,0.46562 0.15628,0.31044 0.41202,1.15115 0.76721,2.52211 l 3.36719,12.95975 -0.17049,-16.06388 z" />
    <path
       style="font-size:48px;font-style:normal;font-variant:normal;font-weight:normal;font-stretch:normal;line-height:125%;letter-spacing:0px;word-spacing:0px;fill:none;stroke:#000000;stroke-width:0.25;stroke-miterlimit:4;stroke-opacity:1;stroke-dasharray:none;font-family:DFPOP1-W9;-inkscape-font-specification:DFPOP1-W9"
       inkscape:connector-curvature="0"
       id="path4917"
       d="m 255.69446,285.6956 c -1.00874,3.41458 -2.36557,8.75626 -4.07046,16.02509 l -0.51147,13.58057 -3.32457,-0.31041 c 0.17049,-2.76785 0.34808,-7.19123 0.53279,-13.27016 l -2.85572,-16.2967 3.00489,-1.86248 c 0.31256,2.89722 0.80983,6.62218 1.4918,11.17488 0.41201,-1.75898 1.31419,-5.38047 2.70653,-10.86446 z" />
    <path
       style="font-size:48px;font-style:normal;font-variant:normal;font-weight:normal;font-stretch:normal;line-height:125%;letter-spacing:0px;word-spacing:0px;fill:none;stroke:#000000;stroke-width:0.25;stroke-miterlimit:4;stroke-opacity:1;stroke-dasharray:none;font-family:DFPOP1-W9;-inkscape-font-specification:DFPOP1-W9"
       inkscape:connector-curvature="0"
       id="path4919"
       d="m 277.15495,305.75606 c 0,2.32811 -0.29836,4.38459 -0.89507,6.16946 -0.7388,2.19877 -2.31584,3.32401 -4.73111,3.37574 -1.23606,0.0258 -2.64971,-0.27161 -4.24095,-0.89244 0.34097,-9.62279 0.53278,-19.78881 0.5754,-30.49809 1.07977,-0.18105 2.30162,-0.27158 3.66555,-0.27161 2.04588,3e-5 3.42401,0.8278 4.13439,2.4833 0.65354,1.57796 0.98742,3.34991 1.00164,5.31583 0.0142,2.61266 -0.61804,4.77262 -1.89671,6.47988 1.60544,1.83662 2.40106,4.44926 2.38686,7.83793 z m -3.81472,-13.9686 c -0.0427,-0.6984 -0.15629,-1.33216 -0.34098,-1.90128 -0.24154,-0.54319 -0.66066,-0.81481 -1.25737,-0.81483 -0.25574,2e-5 -0.44044,0.0259 -0.55409,0.0776 l -0.0853,5.39343 c 1.40654,-0.0517 2.15244,-0.97002 2.23769,-2.75492 z m 0.53278,13.27017 c 0,-1.37098 -0.1776,-2.35396 -0.53278,-2.94893 -0.32678,-0.59494 -0.87377,-0.89242 -1.64097,-0.89244 -0.1705,2e-5 -0.39782,0.0259 -0.68196,0.0776 l -0.10656,8.26476 c 0.34098,0.12935 0.69617,0.18108 1.06557,0.15521 1.26446,-0.0776 1.8967,-1.62967 1.8967,-4.6562 z" />
    <path
       style="font-size:48px;font-style:normal;font-variant:normal;font-weight:normal;font-stretch:normal;line-height:125%;letter-spacing:0px;word-spacing:0px;fill:none;stroke:#000000;stroke-width:0.25;stroke-miterlimit:4;stroke-opacity:1;stroke-dasharray:none;font-family:DFPOP1-W9;-inkscape-font-specification:DFPOP1-W9"
       inkscape:connector-curvature="0"
       id="path4921"
       d="m 288.13028,312.89556 -3.23932,2.3281 c -1.07978,-6.02718 -2.01037,-10.74804 -2.79178,-14.16261 -0.0568,2e-5 -0.12787,2e-5 -0.21311,0 l -0.25574,14.16261 -3.3885,-0.31041 0.14918,-5.35463 c 0.22732,-8.14833 0.34098,-16.67175 0.34098,-25.57029 0.86666,-0.31038 1.95354,-0.46559 3.26064,-0.46562 2.14533,3e-5 3.65843,0.85367 4.5393,2.56091 0.85245,1.7073 1.27867,3.78965 1.27868,6.24707 -10e-6,2.0953 -0.42623,3.99659 -1.27868,5.70384 -0.34099,0.72431 -0.78142,1.2934 -1.3213,1.70727 l 0.9377,4.46219 c 0.35518,1.60381 0.71037,3.24641 1.06557,4.92781 0.35517,1.62968 0.66063,2.88426 0.91638,3.76376 z m -3.75079,-20.56487 c -0.0284,-1.03469 -0.16339,-1.82366 -0.40491,-2.36691 -0.25574,-0.49145 -0.78853,-0.7372 -1.59835,-0.73722 l -0.27705,0 -0.10655,6.63507 c 0.65354,-0.12931 1.1508,-0.37506 1.49179,-0.73722 0.55408,-0.54321 0.85244,-1.47444 0.89507,-2.79372 z" />
    <path
       style="font-size:48px;font-style:normal;font-variant:normal;font-weight:normal;font-stretch:normal;line-height:125%;letter-spacing:0px;word-spacing:0px;fill:none;stroke:#000000;stroke-width:0.25;stroke-miterlimit:4;stroke-opacity:1;stroke-dasharray:none;font-family:DFPOP1-W9;-inkscape-font-specification:DFPOP1-W9"
       inkscape:connector-curvature="0"
       id="path4923"
       d="m 298.87119,308.31697 -0.21312,6.20826 c -1.13661,0.54322 -2.67102,0.8019 -4.60324,0.77603 -2.20217,-0.0258 -3.58031,-0.82776 -4.1344,-2.4057 -0.55409,-1.06058 -0.83114,-3.58268 -0.83114,-7.56632 0,-0.56908 0.11366,-2.78078 0.34098,-6.63508 0.21312,-3.64734 0.32678,-6.95841 0.34098,-9.93322 0.0142,-1.94006 -0.0426,-3.54386 -0.17049,-4.81141 l 9.14256,-0.31041 -0.10656,5.74264 c -2.94097,0.1035 -4.75953,0.28457 -5.4557,0.54323 l -0.17049,6.44107 c 2.15955,-0.0517 3.81472,-0.15519 4.96554,-0.31041 l 0,6.01425 -5.13603,0.19401 -0.0426,2.05648 c -0.0284,1.39688 0.0355,2.53505 0.19181,3.41455 0.14207,0.85364 0.49726,1.28047 1.06556,1.28046 1.46337,-0.0258 3.06882,-0.25867 4.81636,-0.69843 z" />
    <path
       style="font-size:48px;font-style:normal;font-variant:normal;font-weight:normal;font-stretch:normal;line-height:125%;letter-spacing:0px;word-spacing:0px;fill:none;stroke:#000000;stroke-width:0.25;stroke-miterlimit:4;stroke-opacity:1;stroke-dasharray:none;font-family:DFPOP1-W9;-inkscape-font-specification:DFPOP1-W9"
       inkscape:connector-curvature="0"
       id="path4925"
       d="m 310.16618,284.72556 -1.06556,13.46417 c -0.32678,4.06126 -0.56121,6.85498 -0.70328,8.38116 -0.24153,2.53505 -0.46175,4.46219 -0.66065,5.78145 -0.29836,1.88835 -0.63224,2.87132 -1.00163,2.94892 -0.58251,-0.18107 -1.02295,-1.99181 -1.3213,-5.43223 l -0.68196,-8.26475 -1.15081,9.97203 c -0.15629,1.47446 -0.32678,2.4445 -0.51148,2.91012 -0.17049,0.46562 -0.34808,0.73723 -0.53278,0.81483 -0.39781,-0.0776 -0.67486,-0.58202 -0.83114,-1.51326 -0.35519,-2.35396 -0.753,-6.72562 -1.19343,-13.11496 -0.32678,-5.40634 -0.65355,-10.8127 -0.98032,-16.21909 l 2.51473,-0.89244 c 0.0284,1.57797 0.12076,4.08714 0.27705,7.52752 l 0.51147,10.55405 1.04425,-12.95975 c 0.11366,-1.44857 0.26994,-2.44447 0.46885,-2.98773 0.14207,-0.46559 0.31967,-0.6984 0.53279,-0.69843 0.14206,3e-5 0.29835,0.27165 0.46885,0.81484 0.2131,0.82779 0.35518,1.83664 0.42622,3.02653 l 0.83114,12.80454 0.85246,-17.73235 z" />
    <path
       style="font-size:48px;font-style:normal;font-variant:normal;font-weight:normal;font-stretch:normal;line-height:125%;letter-spacing:0px;word-spacing:0px;fill:none;stroke:#000000;stroke-width:0.25;stroke-miterlimit:4;stroke-opacity:1;stroke-dasharray:none;font-family:DFPOP1-W9;-inkscape-font-specification:DFPOP1-W9"
       inkscape:connector-curvature="0"
       id="path4927"
       d="m 331.79717,295.86163 -3.30325,0.58203 c -10e-6,-0.90535 0.007,-1.50031 0.0213,-1.78487 -0.0426,-1.62965 -0.14208,-2.9489 -0.29836,-3.95777 -0.17049,-1.11229 -0.41913,-1.66844 -0.74589,-1.66848 -0.7246,4e-5 -1.28579,1.02181 -1.6836,3.06534 -0.44044,2.25051 -0.66065,4.91489 -0.66065,7.99314 0,1.78489 0.0923,3.60856 0.27705,5.47103 0.31256,2.81959 0.77431,4.22939 1.38523,4.22938 0.49726,-0.12933 0.9448,-1.00883 1.34261,-2.63851 0.28415,-1.08644 0.49726,-2.28929 0.63934,-3.60856 l 2.94097,3.68616 c -0.63935,2.56092 -1.49181,4.63033 -2.55736,6.20827 -0.79563,1.13818 -1.58415,1.759 -2.36556,1.86247 -0.96611,-0.0776 -1.80436,-0.69843 -2.51473,-1.86247 -0.75301,-1.29339 -1.32841,-2.92305 -1.72622,-4.88901 -0.46885,-2.50917 -0.70327,-5.32875 -0.70327,-8.45876 0,-3.518 0.22021,-6.40225 0.66065,-8.65277 1.06556,-5.277 2.72074,-7.91551 4.96554,-7.91554 1.56282,3e-5 2.72073,1.4357 3.47374,4.30699 0.53988,2.12118 0.82403,4.79849 0.85245,8.03193 z" />
    <path
       style="font-size:48px;font-style:normal;font-variant:normal;font-weight:normal;font-stretch:normal;line-height:125%;letter-spacing:0px;word-spacing:0px;fill:none;stroke:#000000;stroke-width:0.25;stroke-miterlimit:4;stroke-opacity:1;stroke-dasharray:none;font-family:DFPOP1-W9;-inkscape-font-specification:DFPOP1-W9"
       inkscape:connector-curvature="0"
       id="path4929"
       d="m 342.68725,312.89556 -3.23932,2.3281 c -1.07978,-6.02718 -2.01037,-10.74804 -2.79178,-14.16261 -0.0568,2e-5 -0.12787,2e-5 -0.21312,0 l -0.25573,14.16261 -3.3885,-0.31041 0.14918,-5.35463 c 0.22732,-8.14833 0.34098,-16.67175 0.34098,-25.57029 0.86666,-0.31038 1.95353,-0.46559 3.26063,-0.46562 2.14533,3e-5 3.65843,0.85367 4.53931,2.56091 0.85244,1.7073 1.27867,3.78965 1.27868,6.24707 -10e-6,2.0953 -0.42624,3.99659 -1.27868,5.70384 -0.34099,0.72431 -0.78142,1.2934 -1.3213,1.70727 l 0.9377,4.46219 c 0.35518,1.60381 0.71037,3.24641 1.06556,4.92781 0.35518,1.62968 0.66064,2.88426 0.91639,3.76376 z m -3.75079,-20.56487 c -0.0284,-1.03469 -0.16339,-1.82366 -0.40492,-2.36691 -0.25574,-0.49145 -0.78852,-0.7372 -1.59834,-0.73722 l -0.27705,0 -0.10656,6.63507 c 0.65355,-0.12931 1.15081,-0.37506 1.4918,-0.73722 0.55408,-0.54321 0.85244,-1.47444 0.89507,-2.79372 z" />
    <path
       style="font-size:48px;font-style:normal;font-variant:normal;font-weight:normal;font-stretch:normal;line-height:125%;letter-spacing:0px;word-spacing:0px;fill:none;stroke:#000000;stroke-width:0.25;stroke-miterlimit:4;stroke-opacity:1;stroke-dasharray:none;font-family:DFPOP1-W9;-inkscape-font-specification:DFPOP1-W9"
       inkscape:connector-curvature="0"
       id="path4931"
       d="m 353.897,314.13722 -3.06883,1.16404 c -0.34099,-2.50917 -0.62514,-4.73379 -0.85245,-6.67388 l -2.87703,0.23281 -0.0852,0.89243 c -0.14208,1.44861 -0.3552,3.29815 -0.63934,5.54864 l -3.06883,-1.43566 c 0.0142,-0.0776 0.24153,-1.51326 0.68196,-4.30698 l 3.53768,-22.11694 c 0.39781,-2.61261 0.83824,-3.91894 1.3213,-3.91897 0.39781,3e-5 0.83824,1.75904 1.3213,5.27702 l 0.9377,6.59628 c 1.1508,8.30357 2.08139,14.55064 2.79178,18.74121 z m -4.47537,-10.82567 c -0.0284,-0.43974 -0.0853,-1.1123 -0.17049,-2.01769 l -0.53279,-5.19942 c -0.0852,-0.85361 -0.12787,-1.53911 -0.12787,-2.05648 0,2e-5 -0.0639,0.65965 -0.1918,1.97888 l -0.72458,7.25591 c 0.25573,0.0259 0.68196,0.0389 1.27868,0.0389 z" />
    <path
       style="font-size:48px;font-style:normal;font-variant:normal;font-weight:normal;font-stretch:normal;line-height:125%;letter-spacing:0px;word-spacing:0px;fill:none;stroke:#000000;stroke-width:0.25;stroke-miterlimit:4;stroke-opacity:1;stroke-dasharray:none;font-family:DFPOP1-W9;-inkscape-font-specification:DFPOP1-W9"
       inkscape:connector-curvature="0"
       id="path4933"
       d="m 364.8084,283.67792 -0.0213,5.58743 -6.22291,0.62083 -0.12787,6.8679 5.88193,0 -0.0639,5.43223 -4.64586,0 c -0.0853,1e-5 -0.49727,0.0388 -1.23606,0.1164 -0.0426,2.92307 -0.0639,5.84612 -0.0639,8.76917 -1e-5,1.81075 0.0781,3.22054 0.23442,4.22938 l -3.9639,-0.1164 0.34098,-24.83306 c 0.0142,-1.68137 0.0639,-3.81547 0.14918,-6.40227 z" />
    <path
       style="font-size:48px;font-style:normal;font-variant:normal;font-weight:normal;font-stretch:normal;line-height:125%;letter-spacing:0px;word-spacing:0px;fill:none;stroke:#000000;stroke-width:0.25;stroke-miterlimit:4;stroke-opacity:1;stroke-dasharray:none;font-family:DFPOP1-W9;-inkscape-font-specification:DFPOP1-W9"
       inkscape:connector-curvature="0"
       id="path4935"
       d="m 375.12307,290.15779 c -0.95191,-0.20691 -1.93934,-0.32331 -2.96227,-0.34921 l -0.0639,10.51525 c -0.0143,2.87133 -0.0639,7.86381 -0.14918,14.97743 l -3.32457,-0.27161 c 0.0142,-2.17289 0.0426,-5.6521 0.0853,-10.43764 l 0.12786,-14.82223 -3.32456,0 0.23443,-6.20827 c 1.07976,0.20698 2.29451,0.31045 3.64423,0.31042 l 5.73274,0 z" />
    <path
       style="font-size:48px;font-style:normal;font-variant:normal;font-weight:normal;font-stretch:normal;line-height:125%;letter-spacing:0px;word-spacing:0px;fill:none;stroke:#000000;stroke-width:0.25;stroke-miterlimit:4;stroke-opacity:1;stroke-dasharray:none;font-family:DFPOP1-W9;-inkscape-font-specification:DFPOP1-W9"
       inkscape:connector-curvature="0"
       id="path4937"
       d="m 386.16234,308.31697 -0.21312,6.20826 c -1.13661,0.54322 -2.67102,0.8019 -4.60324,0.77603 -2.20218,-0.0258 -3.58031,-0.82776 -4.1344,-2.4057 -0.5541,-1.06058 -0.83114,-3.58268 -0.83114,-7.56632 0,-0.56908 0.11366,-2.78078 0.34098,-6.63508 0.21311,-3.64734 0.32677,-6.95841 0.34098,-9.93322 0.0142,-1.94006 -0.0426,-3.54386 -0.17049,-4.81141 l 9.14256,-0.31041 -0.10656,5.74264 c -2.94097,0.1035 -4.75953,0.28457 -5.4557,0.54323 l -0.17049,6.44107 c 2.15954,-0.0517 3.81472,-0.15519 4.96554,-0.31041 l 0,6.01425 -5.13603,0.19401 -0.0426,2.05648 c -0.0284,1.39688 0.0355,2.53505 0.19181,3.41455 0.14207,0.85364 0.49726,1.28047 1.06556,1.28046 1.46337,-0.0258 3.06882,-0.25867 4.81636,-0.69843 z" />
    <path
       style="font-size:48px;font-style:normal;font-variant:normal;font-weight:normal;font-stretch:normal;line-height:125%;letter-spacing:0px;word-spacing:0px;fill:none;stroke:#000000;stroke-width:0.25;stroke-miterlimit:4;stroke-opacity:1;stroke-dasharray:none;font-family:DFPOP1-W9;-inkscape-font-specification:DFPOP1-W9"
       inkscape:connector-curvature="0"
       id="path4939"
       d="m 397.24422,312.89556 -3.23932,2.3281 c -1.07978,-6.02718 -2.01037,-10.74804 -2.79178,-14.16261 -0.0568,2e-5 -0.12788,2e-5 -0.21312,0 l -0.25573,14.16261 -3.3885,-0.31041 0.14918,-5.35463 c 0.22732,-8.14833 0.34098,-16.67175 0.34098,-25.57029 0.86666,-0.31038 1.95353,-0.46559 3.26063,-0.46562 2.14533,3e-5 3.65843,0.85367 4.53931,2.56091 0.85244,1.7073 1.27867,3.78965 1.27868,6.24707 -1e-5,2.0953 -0.42624,3.99659 -1.27868,5.70384 -0.34099,0.72431 -0.78142,1.2934 -1.3213,1.70727 l 0.9377,4.46219 c 0.35518,1.60381 0.71036,3.24641 1.06556,4.92781 0.35518,1.62968 0.66064,2.88426 0.91639,3.76376 z m -3.75079,-20.56487 c -0.0284,-1.03469 -0.16339,-1.82366 -0.40492,-2.36691 -0.25574,-0.49145 -0.78852,-0.7372 -1.59835,-0.73722 l -0.27704,0 -0.10656,6.63507 c 0.65354,-0.12931 1.1508,-0.37506 1.49179,-0.73722 0.55409,-0.54321 0.85245,-1.47444 0.89508,-2.79372 z" />
    <path
       style="font-size:48px;font-style:normal;font-variant:normal;font-weight:normal;font-stretch:normal;line-height:125%;letter-spacing:0px;word-spacing:0px;fill:none;stroke:#000000;stroke-width:0.25;stroke-miterlimit:4;stroke-opacity:1;stroke-dasharray:none;font-family:DFPOP1-W9;-inkscape-font-specification:DFPOP1-W9"
       inkscape:connector-curvature="0"
       id="path4941"
       d="m 407.92119,305.91127 c 0.0284,2.61265 -0.39782,4.78553 -1.27868,6.51867 -0.99454,1.91422 -2.2377,2.87132 -3.72948,2.87132 -1.19344,-0.0258 -2.72785,-1.22871 -4.60324,-3.60855 l 1.61966,-5.39343 c 1.1508,2.12117 2.14533,3.22054 2.98358,3.29814 0.83824,-0.0776 1.26446,-1.30631 1.27868,-3.68615 -0.0426,-0.8795 -0.15629,-1.66846 -0.34098,-2.36691 -0.18471,-0.69841 -0.63224,-1.47445 -1.34262,-2.3281 -1.64808,-1.24163 -2.76337,-2.72903 -3.34587,-4.46218 -0.51148,-1.47445 -0.76721,-3.19465 -0.76721,-5.16063 0,-2.35393 0.41912,-4.28108 1.25737,-5.78144 0.85245,-1.52617 1.96774,-2.28927 3.34588,-2.2893 1.17921,3e-5 2.16664,0.80193 2.96227,2.4057 0.52567,1.03474 1.10107,2.78081 1.72621,5.23823 l -3.11145,2.94892 c -0.25574,-1.99179 -0.49016,-3.32398 -0.70327,-3.99657 -0.21312,-0.62079 -0.50438,-0.93121 -0.87376,-0.93124 -0.58252,3e-5 -0.87378,0.80193 -0.87377,2.4057 -10e-6,0.983 0.12786,1.75903 0.3836,2.3281 0.1989,0.41391 0.5683,0.87953 1.10819,1.39686 1.64807,1.50036 2.78467,3.19469 3.40981,5.08302 0.5825,1.73316 0.88086,3.56976 0.89508,5.50984 z" />
    <path
       style="fill:none;stroke:#000000;stroke-width:0.25;stroke-miterlimit:4;stroke-opacity:1;display:inline"
       inkscape:transform-center-x="-0.43465815"
       inkscape:transform-center-y="-0.20490488"
       d="m 201.31387,266.96168 4.21604,-0.16305 2.40534,-3.4664 1.4579,3.95931 4.04003,1.21643 -3.31501,2.61004 0.0916,4.2182 -3.50669,-2.34622 -3.98346,1.39056 1.14776,-4.06008 z"
       id="path5013"
       inkscape:connector-curvature="0" />
    <path
       style="fill:none;stroke:#000000;stroke-width:0.25;stroke-miterlimit:4;stroke-opacity:1;display:inline"
       inkscape:transform-center-x="0.43465375"
       inkscape:transform-center-y="-0.20490988"
       d="m 213.62601,324.80781 -4.21605,-0.16305 -2.40533,-3.46641 -1.4579,3.95931 -4.04004,1.21643 3.31501,2.61004 -0.0915,4.2182 3.50669,-2.34621 3.98346,1.39056 -1.14776,-4.06008 z"
       id="path5015"
       inkscape:connector-curvature="0" />
    <path
       style="fill:none;stroke:#000000;stroke-width:0.25;stroke-miterlimit:4;stroke-opacity:1;display:inline"
       inkscape:transform-center-x="0.43465375"
       inkscape:transform-center-y="-0.20490714"
       d="m 398.92642,267.34733 -4.21604,-0.16305 -2.40534,-3.46641 -1.4579,3.95931 -4.04003,1.21643 3.31501,2.61004 -0.0915,4.2182 3.50669,-2.34621 3.98346,1.39056 -1.14776,-4.06008 z"
       id="path5017"
       inkscape:connector-curvature="0" />
    <path
       style="fill:none;stroke:#000000;stroke-width:0.25;stroke-miterlimit:4;stroke-opacity:1;display:inline"
       inkscape:transform-center-x="-0.43465759"
       inkscape:transform-center-y="-0.20490488"
       d="m 387.22864,327.12165 4.21605,-0.16305 2.40533,-3.4664 1.4579,3.95931 4.04004,1.21643 -3.31501,2.61004 0.0915,4.2182 -3.50669,-2.34622 -3.98346,1.39056 1.14776,-4.06008 z"
       id="path5019"
       inkscape:connector-curvature="0" />
  </g>
</svg>
